<svg version="1.1" viewBox="0.0 0.0 925.1994750656168 224.3989501312336" fill="none" stroke="none" stroke-linecap="square" stroke-miterlimit="10" xmlns:xlink="http://www.w3.org/1999/xlink" xmlns="http://www.w3.org/2000/svg"><clipPath id="p.0"><path d="m0 0l925.19946 0l0 224.39896l-925.19946 0l0 -224.39896z" clip-rule="nonzero"/></clipPath><g clip-path="url(#p.0)"><path fill="#000000" fill-opacity="0.0" d="m0 0l925.19946 0l0 224.39896l-925.19946 0z" fill-rule="evenodd"/><path fill="#000000" fill-opacity="0.0" d="m40.16273 22.640419l821.92126 0l0 179.1181l-821.92126 0z" fill-rule="evenodd"/><path fill="#ffffff" d="m98.97523 60.957924q15.5625 0 26.53125 8.78125q10.968758 8.78125 12.843758 24.09375l-19.437508 0q-1.3125 -7.1875 -7.125 -11.59375q-5.8125 -4.40625 -12.875 -4.40625q-11.75 0 -18.28125 8.59375q-6.53125 8.59375 -6.53125 22.78125q0 13.5625 6.46875 22.062508q6.46875 8.5 18.40625 8.5q8.6875 0 14.0625 -5.34375q5.375 -5.34375 6.625 -15.093758l19.500008 0q-1.75 17.437508 -12.656258 27.406258q-10.90625 9.96875 -27.53125 9.96875q-13.1875 0 -23.46875 -6.03125q-10.28125 -6.03125 -15.874996 -17.03125q-5.59375 -11.000008 -5.59375 -24.437508q0 -21.0625 12.312496 -34.65625q12.3125 -13.59375 32.625 -13.59375zm70.12501 2.1875l0 34.4375l0.4375 0q2.875 -4.9375 8.15625 -7.96875q5.28125 -3.03125 11.28125 -3.03125q12.625 0 18.34375 6.4375q5.71875 6.4375 5.71875 20.125l0 41.375008l-18.1875 0l0 -37.937508q0 -7.75 -2.65625 -11.71875q-2.65625 -3.96875 -8.96875 -3.96875q-7.5625 0 -10.84375 4.5q-3.28125 4.5 -3.28125 13.8125l0 35.312508l-18.125 0l0 -91.37501l18.125 0zm88.124985 23.4375q14.6875 0 21.84375 4.8125q7.15625 4.8125 7.15625 13.5625l0 35.500008q0 4.0 0.53125 8.0q0.53125 4.0 1.78125 6.0625l-18.4375 0q-0.5 -1.5 -0.84375 -3.09375q-0.34375 -1.59375 -0.46875 -3.21875q-3.8125 3.9375 -9.46875 6.03125q-5.6562347 2.09375 -12.781235 2.09375q-10.25 0 -16.375 -5.15625q-6.125 -5.15625 -6.125 -14.71875q0 -9.250008 5.75 -14.156258q5.75 -4.90625 20.9375 -6.59375q10.562485 -1.0 13.937485 -2.59375q3.375 -1.59375 3.375 -5.53125q0 -4.4375 -2.59375 -6.65625q-2.59375 -2.21875 -9.09375 -2.21875q-5.6249847 0 -8.624985 2.40625q-3.0 2.40625 -3.5 7.59375l-18.1875 0q0.75 -10.875 8.96875 -16.5q8.21875 -5.625 22.218735 -5.625zm-15.062485 49.125008q0 3.9375 2.6875 6.1875q2.6875 2.25 8.5 2.25q7.2499847 0 10.968735 -3.8125q3.71875 -3.8125 3.71875 -11.125l0 -7.0625076q-1.625 1.3125 -4.28125 1.96875q-2.65625 0.65625 -9.593735 1.65625q-6.1875 0.8125 -9.09375 3.2187576q-2.90625 2.40625 -2.90625 6.71875zm81.187485 -67.18751l0 19.8125l13.3125 0l0 12.1875l-13.3125 0l0 33.187508q0 4.0625 1.53125 5.65625q1.53125 1.59375 6.15625 1.59375q1.5625 0 3.0 -0.125q1.4375 -0.125 2.625 -0.375l0 14.1875q-2.25 0.375 -5.03125 0.5q-2.78125 0.125 -5.46875 0.125q-11.8125 0 -16.40625 -4.03125q-4.59375 -4.03125 -4.59375 -11.28125l0 -39.437508l-11.0 0l0 -12.1875l11.0 0l0 -19.8125l18.1875 0zm87.9375 -5.375q13.125 0 21.90625 7.84375q8.78125 7.84375 8.78125 20.15625q0 8.625 -4.125 15.53125q-4.125 6.90625 -17.3125 15.28125q-9.1875 5.8125 -13.5625 9.625008q-4.375 3.8125 -6.8125 7.3125l42.375 0l0 15.625l-65.8125 0q0 -8.875 3.15625 -15.71875q3.15625 -6.84375 9.0625 -12.250008q5.90625 -5.40625 22.53125 -16.46875q6.375 -4.1875 9.375 -8.40625q3.0 -4.21875 3.0 -9.09375q0 -6.0625 -3.65625 -9.9375q-3.65625 -3.875 -9.78125 -3.875q-6.75 0 -10.40625 5.5q-3.65625 5.5 -3.84375 15.0625l-17.375 0l0 -1.6875q0 -15.5625 8.84375 -25.03125q8.84375 -9.46875 23.65625 -9.46875zm98.4375 0l0 74.50001l44.5625 0l0 16.875l-64.6875 0l0 -91.37501l20.125 0zm82.125 23.4375q14.6875 0 23.46875 10.09375q8.78125 10.09375 8.78125 25.78125l-0.125 3.375l-47.75 0q0.375 8.562508 4.46875 12.687508q4.09375 4.125 11.71875 4.125q4.9375 0 9.125 -2.53125q4.1875 -2.53125 5.3125 -6.09375l16.0 0q-3.6875 11.25 -11.375 16.78125q-7.6875 5.53125 -19.625 5.53125q-15.3125 0 -24.5625 -9.6875q-9.25 -9.6875 -9.25 -25.125008q0 -14.8125 9.46875 -24.875q9.46875 -10.0625 24.34375 -10.0625zm-15.625 27.75l29.5625 0q-1.3125 -7.3125 -4.71875 -10.6875q-3.40625 -3.375 -9.84375 -3.375q-6.625 0 -10.5 3.75q-3.875 3.75 -4.5 10.3125zm88.9375 -27.75q14.6875 0 21.84375 4.8125q7.15625 4.8125 7.15625 13.5625l0 35.500008q0 4.0 0.53125 8.0q0.53125 4.0 1.78125 6.0625l-18.4375 0q-0.5 -1.5 -0.84375 -3.09375q-0.34375 -1.59375 -0.46875 -3.21875q-3.8125 3.9375 -9.46875 6.03125q-5.65625 2.09375 -12.78125 2.09375q-10.25 0 -16.375 -5.15625q-6.125 -5.15625 -6.125 -14.71875q0 -9.250008 5.75 -14.156258q5.75 -4.90625 20.9375 -6.59375q10.5625 -1.0 13.9375 -2.59375q3.375 -1.59375 3.375 -5.53125q0 -4.4375 -2.59375 -6.65625q-2.59375 -2.21875 -9.09375 -2.21875q-5.625 0 -8.625 2.40625q-3.0 2.40625 -3.5 7.59375l-18.1875 0q0.75 -10.875 8.96875 -16.5q8.21875 -5.625 22.21875 -5.625zm-15.0625 49.125008q0 3.9375 2.6875 6.1875q2.6875 2.25 8.5 2.25q7.25 0 10.96875 -3.8125q3.71875 -3.8125 3.71875 -11.125l0 -7.0625076q-1.625 1.3125 -4.28125 1.96875q-2.65625 0.65625 -9.59375 1.65625q-6.1875 0.8125 -9.09375 3.2187576q-2.90625 2.40625 -2.90625 6.71875zm96.75 -49.125008q1.1875 0 2.1875 0.15625q1.0 0.15625 1.875 0.46875l0 16.875q-1.5625 -0.3125 -3.03125 -0.46875q-1.46875 -0.15625 -3.46875 -0.15625q-9.1875 0 -13.59375 5.625q-4.40625 5.625 -4.40625 15.0625l0 30.375008l-18.125 0l0 -66.18751l17.25 0l0 12.3125l0.25 0q2.875 -6.5 8.59375 -10.28125q5.71875 -3.78125 12.46875 -3.78125zm49.1875 0q12.6875 0 18.40625 6.40625q5.71875 6.40625 5.71875 20.15625l0 41.375008l-18.1875 0l0 -37.937508q0 -7.75 -2.65625 -11.71875q-2.65625 -3.96875 -8.96875 -3.96875q-7.5625 0 -10.84375 4.5q-3.28125 4.5 -3.28125 13.8125l0 35.312508l-18.125 0l0 -66.18751l17.25 0l0 9.25l0.375 0q3.3125 -5.3125 8.625 -8.15625q5.3125 -2.84375 11.6875 -2.84375z" fill-rule="nonzero"/></g></svg>