<svg version="1.1" viewBox="0.0 0.0 824.0918635170603 181.0498687664042" fill="none" stroke="none" stroke-linecap="square" stroke-miterlimit="10" xmlns:xlink="http://www.w3.org/1999/xlink" xmlns="http://www.w3.org/2000/svg"><clipPath id="p.0"><path d="m0 0l824.09186 0l0 181.04987l-824.09186 0l0 -181.04987z" clip-rule="nonzero"/></clipPath><g clip-path="url(#p.0)"><path fill="#000000" fill-opacity="0.0" d="m0 0l824.09186 0l0 181.04987l-824.09186 0z" fill-rule="evenodd"/><path fill="#000000" fill-opacity="0.0" d="m0 0l821.92126 0l0 179.1181l-821.92126 0z" fill-rule="evenodd"/><path fill="#ffffff" d="m76.9375 98.192505l17.9375 5.6875q-4.125 15.0 -13.71875 22.28125q-9.59375 7.28125 -24.34375 7.28125q-18.25 0 -30.0 -12.46875q-11.75 -12.46875 -11.75 -34.09375q0 -22.875 11.8125 -35.53125q11.8125 -12.65625 31.0625 -12.65625q16.8125 0 27.3125 9.9375q6.25 5.875 9.375 16.875l-18.3125 4.375q-1.625 -7.125 -6.78125 -11.25q-5.15625 -4.125 -12.53125 -4.125q-10.1875 0 -16.53125 7.3125q-6.34375 7.3125 -6.34375 23.6875q0 17.375 6.25 24.75q6.25 7.375 16.25 7.375q7.375 0 12.6875 -4.6875q5.3125 -4.6875 7.625 -14.75zm51.1875 -57.9375l0 33.6875q8.5 -9.9375 20.3125 -9.9375q6.0625 0 10.9375 2.25q4.875 2.25 7.34375 5.75q2.46875 3.5 3.375 7.75q0.90625 4.25 0.90625 13.1875l0 38.9375l-17.5625 0l0 -35.0625q0 -10.4375 -1.0 -13.25q-1.0 -2.8125 -3.53125 -4.46875q-2.53125 -1.65625 -6.34375 -1.65625q-4.375 0 -7.8125 2.125q-3.4375 2.125 -5.03125 6.40625q-1.59375 4.28125 -1.59375 12.65625l0 33.25l-17.5625 0l0 -91.625l17.5625 0zm73.8125 45.5l-15.9375 -2.875q2.6875 -9.625 9.25 -14.25q6.5625 -4.625 19.5 -4.625q11.75 0 17.5 2.78125q5.75 2.78125 8.09375 7.0625q2.34375 4.28125 2.34375 15.71875l-0.1875 20.5q0 8.75 0.84375 12.90625q0.84375 4.15625 3.15625 8.90625l-17.375 0q-0.6875 -1.75 -1.6875 -5.1875q-0.4375 -1.5625 -0.625 -2.0625q-4.5 4.375 -9.625 6.5625q-5.125 2.1875 -10.9375 2.1875q-10.25 0 -16.15625 -5.5625q-5.90625 -5.5625 -5.90625 -14.0625q0 -5.625 2.6875 -10.03125q2.6875 -4.40625 7.53125 -6.75q4.84375 -2.34375 13.96875 -4.09375q12.3125 -2.3125 17.0625 -4.3125l0 -1.75q0 -5.0625 -2.5 -7.21875q-2.5 -2.15625 -9.4375 -2.15625q-4.6875 0 -7.3125 1.84375q-2.625 1.84375 -4.25 6.46875zm23.5 14.25q-3.375 1.125 -10.6875 2.6875q-7.3125 1.5625 -9.5625 3.0625q-3.4375 2.4375 -3.4375 6.1875q0 3.6875 2.75 6.375q2.75 2.6875 7.0 2.6875q4.75 0 9.0625 -3.125q3.1875 -2.375 4.1875 -5.8125q0.6875 -2.25 0.6875 -8.5625l0 -3.5zm65.0 -34.5l0 14.0l-12.0 0l0 26.75q0 8.125 0.34375 9.46875q0.34375 1.34375 1.5625 2.21875q1.21875 0.875 2.96875 0.875q2.4375 0 7.0625 -1.6875l1.5 13.625q-6.125 2.625 -13.875 2.625q-4.75 0 -8.5625 -1.59375q-3.8125 -1.59375 -5.59375 -4.125q-1.78125 -2.53125 -2.46875 -6.84375q-0.5625 -3.0625 -0.5625 -12.375l0 -28.9375l-8.0625 0l0 -14.0l8.0625 0l0 -13.1875l17.625 -10.25l0 23.4375l12.0 0zm103.3125 50.0625l0 16.3125l-61.5625 0q1.0 -9.25 6.0 -17.53125q5.0 -8.28125 19.75 -21.96875q11.875 -11.0625 14.5625 -15.0q3.625 -5.4375 3.625 -10.75q0 -5.875 -3.15625 -9.03125q-3.15625 -3.15625 -8.71875 -3.15625q-5.5 0 -8.75 3.3125q-3.25 3.3125 -3.75 11.0l-17.5 -1.75q1.5625 -14.5 9.8125 -20.8125q8.25 -6.3125 20.625 -6.3125q13.5625 0 21.3125 7.3125q7.75 7.3125 7.75 18.1875q0 6.1875 -2.21875 11.78125q-2.21875 5.59375 -7.03125 11.71875q-3.1875 4.0625 -11.5 11.6875q-8.3125 7.625 -10.53125 10.125q-2.21875 2.5 -3.59375 4.875l34.875 0zm51.8125 16.3125l0 -90.875l18.5 0l0 75.4375l46.0 0l0 15.4375l-64.5 0zm116.0 -21.125l17.5 2.9375q-3.375 9.625 -10.65625 14.65625q-7.28125 5.03125 -18.21875 5.03125q-17.3125 0 -25.625 -11.3125q-6.5625 -9.0625 -6.5625 -22.875q0 -16.5 8.625 -25.84375q8.625 -9.34375 21.8125 -9.34375q14.8125 0 23.375 9.78125q8.5625 9.78125 8.1875 29.96875l-44.0 0q0.1875 7.8125 4.25 12.15625q4.0625 4.34375 10.125 4.34375q4.125 0 6.9375 -2.25q2.8125 -2.25 4.25 -7.25zm1.0 -17.75q-0.1875 -7.625 -3.9375 -11.59375q-3.75 -3.96875 -9.125 -3.96875q-5.75 0 -9.5 4.1875q-3.75 4.1875 -3.6875 11.375l26.25 0zm44.875 -7.25l-15.9375 -2.875q2.6875 -9.625 9.25 -14.25q6.5625 -4.625 19.5 -4.625q11.75 0 17.5 2.78125q5.75 2.78125 8.09375 7.0625q2.34375 4.28125 2.34375 15.71875l-0.1875 20.5q0 8.75 0.84375 12.90625q0.84375 4.15625 3.15625 8.90625l-17.375 0q-0.6875 -1.75 -1.6875 -5.1875q-0.4375 -1.5625 -0.625 -2.0625q-4.5 4.375 -9.625 6.5625q-5.125 2.1875 -10.9375 2.1875q-10.25 0 -16.15625 -5.5625q-5.90625 -5.5625 -5.90625 -14.0625q0 -5.625 2.6875 -10.03125q2.6875 -4.40625 7.53125 -6.75q4.84375 -2.34375 13.96875 -4.09375q12.3125 -2.3125 17.0625 -4.3125l0 -1.75q0 -5.0625 -2.5 -7.21875q-2.5 -2.15625 -9.4375 -2.15625q-4.6875 0 -7.3125 1.84375q-2.625 1.84375 -4.25 6.46875zm23.5 14.25q-3.375 1.125 -10.6875 2.6875q-7.3125 1.5625 -9.5625 3.0625q-3.4375 2.4375 -3.4375 6.1875q0 3.6875 2.75 6.375q2.75 2.6875 7.0 2.6875q4.75 0 9.0625 -3.125q3.1875 -2.375 4.1875 -5.8125q0.6875 -2.25 0.6875 -8.5625l0 -3.5zm51.375 31.875l-17.5625 0l0 -66.375l16.3125 0l0 9.4375q4.1875 -6.6875 7.53125 -8.8125q3.34375 -2.125 7.59375 -2.125q6.0 0 11.5625 3.3125l-5.4375 15.3125q-4.4375 -2.875 -8.25 -2.875q-3.6875 0 -6.25 2.03125q-2.5625 2.03125 -4.03125 7.34375q-1.46875 5.3125 -1.46875 22.25l0 20.5zm93.375 0l-17.5625 0l0 -33.875q0 -10.75 -1.125 -13.90625q-1.125 -3.15625 -3.65625 -4.90625q-2.53125 -1.75 -6.09375 -1.75q-4.5625 0 -8.1875 2.5q-3.625 2.5 -4.96875 6.625q-1.34375 4.125 -1.34375 15.25l0 30.0625l-17.5625 0l0 -66.375l16.3125 0l0 9.75q8.6875 -11.25 21.875 -11.25q5.8125 0 10.625 2.09375q4.8125 2.09375 7.28125 5.34375q2.46875 3.25 3.4375 7.375q0.96875 4.125 0.96875 11.8125l0 41.25z" fill-rule="nonzero"/></g></svg>